# Blender 4.0.2
# www.blender.org
mtllib floor.mtl
o Circle
v 0.000000 0.000000 -50.000000
v -9.754517 0.000000 -49.039261
v -19.134172 0.000000 -46.193974
v -27.778513 0.000000 -41.573479
v -35.355339 0.000000 -35.355339
v -41.573479 0.000000 -27.778513
v -46.193974 0.000000 -19.134172
v -49.039261 0.000000 -9.754517
v -50.000000 0.000000 0.000000
v -49.039261 0.000000 9.754517
v -46.193974 0.000000 19.134172
v -41.573479 0.000000 27.778513
v -35.355339 0.000000 35.355339
v -27.778513 0.000000 41.573479
v -19.134172 0.000000 46.193974
v -9.754517 0.000000 49.039261
v 0.000000 0.000000 50.000000
v 9.754517 0.000000 49.039261
v 19.134172 0.000000 46.193974
v 27.778513 0.000000 41.573479
v 35.355339 0.000000 35.355339
v 41.573479 0.000000 27.778513
v 46.193974 0.000000 19.134172
v 49.039261 0.000000 9.754517
v 50.000000 0.000000 0.000000
v 49.039261 0.000000 -9.754517
v 46.193974 0.000000 -19.134172
v 41.573479 0.000000 -27.778513
v 35.355339 0.000000 -35.355339
v 27.778513 0.000000 -41.573479
v 19.134172 0.000000 -46.193974
v 9.754517 0.000000 -49.039261
vn -0.0000 1.0000 -0.0000
vt 11.327330 9.301350
vt 9.402225 11.244533
vt 7.135009 12.774825
vt 4.612815 13.833395
vt 1.932573 14.379576
vt -0.802720 14.392358
vt -3.487951 13.871271
vt -6.019934 12.836324
vt -8.301354 11.327330
vt -10.244534 9.402225
vt -11.774828 7.135009
vt -12.833396 4.612815
vt -13.379578 1.932577
vt -13.392360 -0.802720
vt -12.871272 -3.487951
vt -11.836325 -6.019934
vt -10.327332 -8.301353
vt -8.402226 -10.244534
vt -6.135010 -11.774827
vt -3.612817 -12.833396
vt -0.932581 -13.379551
vt 1.802721 -13.392360
vt 4.487950 -12.871272
vt 7.019932 -11.836325
vt 9.301352 -10.327305
vt 11.244533 -8.402226
vt 12.774825 -6.135010
vt 13.833395 -3.612817
vt 14.379576 -0.932573
vt 14.392358 1.802723
vt 13.871271 4.487957
vt 12.836324 7.019932
s 0
usemtl diagonal_parquet
f 2/1/1 3/2/1 4/3/1 5/4/1 6/5/1 7/6/1 8/7/1 9/8/1 10/9/1 11/10/1 12/11/1 13/12/1 14/13/1 15/14/1 16/15/1 17/16/1 18/17/1 19/18/1 20/19/1 21/20/1 22/21/1 23/22/1 24/23/1 25/24/1 26/25/1 27/26/1 28/27/1 29/28/1 30/29/1 31/30/1 32/31/1 1/32/1
