# Blender 4.0.2
# www.blender.org
mtllib debugSquare.mtl
o Cube
v -0.480000 0.000400 0.480000
v -0.480000 0.019600 0.480000
v -0.480000 0.000400 -0.480000
v -0.480000 0.019600 -0.480000
v 0.480000 0.000400 0.480000
v 0.480000 0.019600 0.480000
v 0.480000 0.000400 -0.480000
v 0.480000 0.019600 -0.480000
v -0.500000 0.020000 0.500000
v -0.500000 0.020000 -0.500000
v 0.500000 0.020000 -0.500000
v 0.500000 0.020000 0.500000
v -0.500000 0.000000 -0.500000
v -0.500000 0.000000 0.500000
v 0.500000 0.000000 -0.500000
v 0.500000 0.000000 0.500000
vn -1.0000 -0.0000 -0.0000
vn -0.0000 -0.0000 -1.0000
vn 1.0000 -0.0000 -0.0000
vn -0.0000 -0.0000 1.0000
vn 0.0200 0.9998 -0.0000
vn -0.0000 0.9998 0.0200
vn -0.0200 0.9998 -0.0000
vn -0.0000 0.9998 -0.0200
vn 0.0200 -0.9998 -0.0000
vn -0.0000 -0.9998 0.0200
vn -0.0200 -0.9998 -0.0000
vn -0.0000 -0.9998 -0.0200
vt 0.375000 0.000000
vt 0.625000 0.000000
vt 0.625000 0.250000
vt 0.375000 0.250000
vt 0.625000 0.500000
vt 0.375000 0.500000
vt 0.625000 0.750000
vt 0.375000 0.750000
vt 0.625000 1.000000
vt 0.375000 1.000000
vt 0.872500 0.747500
vt 0.872500 0.502500
vt 0.875000 0.500000
vt 0.875000 0.750000
vt 0.627500 0.502500
vt 0.627500 0.747500
vt 0.127500 0.502500
vt 0.127500 0.747500
vt 0.125000 0.750000
vt 0.125000 0.500000
vt 0.372500 0.502500
vt 0.372500 0.747500
s 0
usemtl Material
f 14/1/1 9/2/1 10/3/1 13/4/1
f 13/4/2 10/3/2 11/5/2 15/6/2
f 15/6/3 11/5/3 12/7/3 16/8/3
f 16/8/4 12/7/4 9/9/4 14/10/4
f 2/11/5 4/12/5 10/13/5 9/14/5
f 4/12/6 8/15/6 11/5/6 10/13/6
f 8/15/7 6/16/7 12/7/7 11/5/7
f 6/16/8 2/11/8 9/14/8 12/7/8
f 3/17/9 1/18/9 14/19/9 13/20/9
f 7/21/10 3/17/10 13/20/10 15/6/10
f 5/22/11 7/21/11 15/6/11 16/8/11
f 1/18/12 5/22/12 16/8/12 14/19/12
f 8/15/1 7/21/1 5/22/1 6/16/1
f 6/16/2 5/22/2 1/18/2 2/11/2
f 2/11/3 1/18/3 3/17/3 4/12/3
f 4/12/4 3/17/4 7/21/4 8/15/4
