# Blender 4.0.2
# www.blender.org
mtllib debugArrow.mtl
o Cylinder
v 0.000000 0.000000 -0.012500
v -0.000000 1.000000 0.000000
v 0.004784 0.000000 -0.011548
v 0.008839 0.000000 -0.008839
v 0.011548 0.000000 -0.004784
v 0.012500 0.000000 -0.000000
v 0.011548 0.000000 0.004784
v 0.008839 0.000000 0.008839
v 0.004784 0.000000 0.011548
v 0.000000 0.000000 0.012500
v -0.004784 0.000000 0.011548
v -0.008839 0.000000 0.008839
v -0.011548 0.000000 0.004784
v -0.012500 0.000000 -0.000000
v -0.011548 0.000000 -0.004784
v -0.008839 0.000000 -0.008839
v -0.004784 0.000000 -0.011548
v 0.000000 0.910000 -0.012500
v 0.004784 0.910000 -0.011548
v 0.008839 0.910000 -0.008839
v 0.011548 0.910000 -0.004784
v 0.012500 0.910000 -0.000000
v 0.011548 0.910000 0.004784
v 0.008839 0.910000 0.008839
v 0.004784 0.910000 0.011548
v 0.000000 0.910000 0.012500
v -0.004784 0.910000 0.011548
v -0.008839 0.910000 0.008839
v -0.011548 0.910000 0.004784
v -0.012500 0.910000 -0.000000
v -0.011548 0.910000 -0.004784
v -0.008839 0.910000 -0.008839
v -0.004784 0.910000 -0.011548
v -0.000000 0.910000 -0.050000
v 0.019134 0.910000 -0.046194
v 0.035355 0.910000 -0.035355
v 0.046194 0.910000 -0.019134
v 0.050000 0.910000 0.000000
v 0.046194 0.910000 0.019134
v 0.035355 0.910000 0.035355
v 0.019134 0.910000 0.046194
v -0.000000 0.910000 0.050000
v -0.019134 0.910000 0.046194
v -0.035355 0.910000 0.035355
v -0.046194 0.910000 0.019134
v -0.050000 0.910000 0.000000
v -0.046194 0.910000 -0.019134
v -0.035355 0.910000 -0.035355
v -0.019134 0.910000 -0.046194
vn -0.0000 -1.0000 -0.0000
vn -0.3827 -0.0000 -0.9239
vn -0.0000 -0.0000 -1.0000
vn -0.7071 -0.0000 -0.7071
vn -0.9239 -0.0000 -0.3827
vn -1.0000 -0.0000 -0.0000
vn -0.9239 -0.0000 0.3827
vn -0.7071 -0.0000 0.7071
vn -0.3827 -0.0000 0.9239
vn -0.0000 -0.0000 1.0000
vn 0.3827 -0.0000 0.9239
vn 0.7071 -0.0000 0.7071
vn 0.9239 -0.0000 0.3827
vn 1.0000 -0.0000 -0.0000
vn 0.9239 -0.0000 -0.3827
vn 0.7071 -0.0000 -0.7071
vn 0.3827 -0.0000 -0.9239
vn -0.0000 0.4856 -0.8742
vn -0.0000 1.0000 -0.0000
vn 0.3345 0.4856 -0.8076
vn 0.6181 0.4856 -0.6181
vn 0.8076 0.4856 -0.3345
vn 0.8742 0.4856 -0.0000
vn 0.8076 0.4856 0.3345
vn 0.6181 0.4856 0.6181
vn 0.3345 0.4856 0.8076
vn -0.0000 0.4856 0.8742
vn -0.3345 0.4856 0.8076
vn -0.6181 0.4856 0.6181
vn -0.8076 0.4856 0.3345
vn -0.8742 0.4856 -0.0000
vn -0.8076 0.4856 -0.3345
vn -0.6181 0.4856 -0.6181
vn -0.3345 0.4856 -0.8076
vt 0.500000 1.000000
vt 0.562500 1.000000
vt 0.437500 1.000000
vt 0.375000 1.000000
vt 0.312500 1.000000
vt 0.250000 1.000000
vt 0.187500 1.000000
vt 0.125000 1.000000
vt 0.937500 1.000000
vt 1.000000 1.000000
vt 0.750000 0.490000
vt 0.841844 0.471731
vt 0.919706 0.419706
vt 0.971731 0.341844
vt 0.990000 0.250000
vt 0.971731 0.158156
vt 0.919706 0.080294
vt 0.841844 0.028269
vt 0.750000 0.010000
vt 0.658156 0.028269
vt 0.580294 0.080294
vt 0.528269 0.158156
vt 0.510000 0.250000
vt 0.528269 0.341844
vt 0.580294 0.419706
vt 0.658156 0.471731
vt 0.062500 0.500000
vt 0.062500 1.000000
vt 0.000000 1.000000
vt 0.000000 0.500000
vt 0.125000 0.500000
vt 0.187500 0.500000
vt 0.250000 0.500000
vt 0.312500 0.500000
vt 0.375000 0.500000
vt 0.437500 0.500000
vt 0.500000 0.500000
vt 0.562500 0.500000
vt 0.625000 0.500000
vt 0.625000 1.000000
vt 0.687500 0.500000
vt 0.687500 1.000000
vt 0.750000 0.500000
vt 0.750000 1.000000
vt 0.812500 0.500000
vt 0.812500 1.000000
vt 0.875000 0.500000
vt 0.875000 1.000000
vt 0.937500 0.500000
vt 1.000000 0.500000
s 1
usemtl Material
f 26/1/1 25/2/1 41/2/1 42/1/1
f 27/3/1 26/1/1 42/1/1 43/3/1
f 28/4/1 27/3/1 43/3/1 44/4/1
f 29/5/1 28/4/1 44/4/1 45/5/1
f 30/6/1 29/5/1 45/5/1 46/6/1
f 31/7/1 30/6/1 46/6/1 47/7/1
f 32/8/1 31/7/1 47/7/1 48/8/1
f 19/9/1 18/10/1 34/10/1 35/9/1
f 1/11/1 3/12/1 4/13/1 5/14/1 6/15/1 7/16/1 8/17/1 9/18/1 10/19/1 11/20/1 12/21/1 13/22/1 14/23/1 15/24/1 16/25/1 17/26/1
f 17/27/2 33/28/2 18/29/3 1/30/3
f 16/31/4 32/8/4 33/28/2 17/27/2
f 15/32/5 31/7/5 32/8/4 16/31/4
f 14/33/6 30/6/6 31/7/5 15/32/5
f 13/34/7 29/5/7 30/6/6 14/33/6
f 12/35/8 28/4/8 29/5/7 13/34/7
f 11/36/9 27/3/9 28/4/8 12/35/8
f 10/37/10 26/1/10 27/3/9 11/36/9
f 9/38/11 25/2/11 26/1/10 10/37/10
f 8/39/12 24/40/12 25/2/11 9/38/11
f 7/41/13 23/42/13 24/40/12 8/39/12
f 6/43/14 22/44/14 23/42/13 7/41/13
f 5/45/15 21/46/15 22/44/14 6/43/14
f 4/47/16 20/48/16 21/46/15 5/45/15
f 3/49/17 19/9/17 20/48/16 4/47/16
f 1/50/3 18/10/3 19/9/17 3/49/17
f 34/10/18 2/9/19 35/9/20
f 35/9/20 2/48/19 36/48/21
f 36/48/21 2/46/19 37/46/22
f 37/46/22 2/44/19 38/44/23
f 38/44/23 2/42/19 39/42/24
f 39/42/24 2/40/19 40/40/25
f 40/40/25 2/2/19 41/2/26
f 41/2/26 2/1/19 42/1/27
f 42/1/27 2/3/19 43/3/28
f 43/3/28 2/4/19 44/4/29
f 44/4/29 2/5/19 45/5/30
f 45/5/30 2/6/19 46/6/31
f 46/6/31 2/7/19 47/7/32
f 47/7/32 2/8/19 48/8/33
f 48/8/33 2/28/19 49/28/34
f 49/28/34 2/29/19 34/29/18
f 25/2/1 24/40/1 40/40/1 41/2/1
f 24/40/1 23/42/1 39/42/1 40/40/1
f 23/42/1 22/44/1 38/44/1 39/42/1
f 22/44/1 21/46/1 37/46/1 38/44/1
f 21/46/1 20/48/1 36/48/1 37/46/1
f 18/29/1 33/28/1 49/28/1 34/29/1
f 20/48/1 19/9/1 35/9/1 36/48/1
f 33/28/1 32/8/1 48/8/1 49/28/1
