# Blender 4.1.0
# www.blender.org
mtllib blueNoiseOuterGridCell.mtl
o Cube
v -0.500000 -0.005000 0.500000
v -0.500000 0.005000 0.500000
v -0.500000 -0.005000 -0.500000
v -0.500000 0.005000 -0.500000
v 0.500000 -0.005000 0.500000
v 0.500000 0.005000 0.500000
v 0.500000 -0.005000 -0.500000
v 0.500000 0.005000 -0.500000
v 0.490500 -0.005000 0.490500
v -0.490500 -0.005000 -0.490500
v 0.490500 -0.005000 -0.490500
v -0.490500 -0.005000 0.490500
v -0.490500 0.005000 0.490500
v 0.490500 0.005000 -0.490500
v -0.490500 0.005000 -0.490500
v 0.490500 0.005000 0.490500
vn -1.0000 -0.0000 -0.0000
vn -0.0000 -0.0000 -1.0000
vn 1.0000 -0.0000 -0.0000
vn -0.0000 -0.0000 1.0000
vn -0.0000 1.0000 -0.0000
vn -0.0000 -1.0000 -0.0000
vt 0.375000 0.000000
vt 0.625000 0.000000
vt 0.625000 0.250000
vt 0.375000 0.250000
vt 0.625000 0.500000
vt 0.375000 0.500000
vt 0.625000 0.750000
vt 0.375000 0.750000
vt 0.625000 1.000000
vt 0.375000 1.000000
vt 0.562500 0.000000
vt 0.437500 0.000000
vt 0.437500 0.250000
vt 0.562500 0.250000
vt 0.437500 0.500000
vt 0.562500 0.500000
vt 0.437500 0.750000
vt 0.562500 0.750000
vt 0.437500 1.000000
vt 0.562500 1.000000
s 0
usemtl Material.001
f 1/1/1 2/2/1 4/3/1 3/4/1
f 3/4/2 4/3/2 8/5/2 7/6/2
f 7/6/3 8/5/3 6/7/3 5/8/3
f 5/8/4 6/7/4 2/9/4 1/10/4
f 13/11/3 12/12/3 10/13/3 15/14/3
f 15/14/4 10/13/4 11/15/4 14/16/4
f 11/15/1 9/17/1 16/18/1 14/16/1
f 9/17/2 12/19/2 13/20/2 16/18/2
f 16/18/5 6/7/5 8/5/5 14/16/5
f 4/3/5 15/14/5 14/16/5 8/5/5
f 4/3/5 2/2/5 13/11/5 15/14/5
f 16/18/5 13/20/5 2/2/5 6/7/5
f 11/15/6 7/6/6 5/8/6 9/17/6
f 7/6/6 11/15/6 10/13/6 3/4/6
f 1/1/6 3/4/6 10/13/6 12/12/6
f 1/1/6 12/12/6 9/17/6 5/8/6
o Cube.007
v 0.005000 -0.125000 -0.005000
v 0.005000 -0.125000 0.005000
v -0.005000 -0.125000 -0.005000
v -0.005000 -0.125000 0.005000
v 0.005000 -0.005000 -0.005000
v 0.005000 -0.005000 0.005000
v -0.005000 -0.005000 -0.005000
v -0.005000 -0.005000 0.005000
vn -0.0000 -1.0000 -0.0000
vn -1.0000 -0.0000 -0.0000
vn -0.0000 1.0000 -0.0000
vn 1.0000 -0.0000 -0.0000
vn -0.0000 -0.0000 -1.0000
vn -0.0000 -0.0000 1.0000
vt 0.375000 0.000000
vt 0.625000 0.000000
vt 0.625000 0.250000
vt 0.375000 0.250000
vt 0.625000 0.500000
vt 0.375000 0.500000
vt 0.625000 0.750000
vt 0.375000 0.750000
vt 0.625000 1.000000
vt 0.375000 1.000000
vt 0.125000 0.500000
vt 0.125000 0.750000
vt 0.875000 0.500000
vt 0.875000 0.750000
s 0
usemtl Material.001
f 17/21/7 18/22/7 20/23/7 19/24/7
f 19/24/8 20/23/8 24/25/8 23/26/8
f 23/26/9 24/25/9 22/27/9 21/28/9
f 21/28/10 22/27/10 18/29/10 17/30/10
f 19/31/11 23/26/11 21/28/11 17/32/11
f 24/25/12 20/33/12 18/34/12 22/27/12
o Cube.008
v 0.005000 0.005000 -0.005000
v 0.005000 0.005000 0.005000
v -0.005000 0.005000 -0.005000
v -0.005000 0.005000 0.005000
v 0.005000 0.125000 -0.005000
v 0.005000 0.125000 0.005000
v -0.005000 0.125000 -0.005000
v -0.005000 0.125000 0.005000
vn -0.0000 -1.0000 -0.0000
vn -1.0000 -0.0000 -0.0000
vn -0.0000 1.0000 -0.0000
vn 1.0000 -0.0000 -0.0000
vn -0.0000 -0.0000 -1.0000
vn -0.0000 -0.0000 1.0000
vt 0.375000 0.000000
vt 0.625000 0.000000
vt 0.625000 0.250000
vt 0.375000 0.250000
vt 0.625000 0.500000
vt 0.375000 0.500000
vt 0.625000 0.750000
vt 0.375000 0.750000
vt 0.625000 1.000000
vt 0.375000 1.000000
vt 0.125000 0.500000
vt 0.125000 0.750000
vt 0.875000 0.500000
vt 0.875000 0.750000
s 0
usemtl Material.001
f 25/35/13 26/36/13 28/37/13 27/38/13
f 27/38/14 28/37/14 32/39/14 31/40/14
f 31/40/15 32/39/15 30/41/15 29/42/15
f 29/42/16 30/41/16 26/43/16 25/44/16
f 27/45/17 31/40/17 29/42/17 25/46/17
f 32/39/18 28/47/18 26/48/18 30/41/18
o Cube.001
v 0.005000 0.005000 -0.125000
v 0.005000 -0.005000 -0.125000
v -0.005000 0.005000 -0.125000
v -0.005000 -0.005000 -0.125000
v 0.005000 0.005000 -0.005000
v 0.005000 -0.005000 -0.005000
v -0.005000 0.005000 -0.005000
v -0.005000 -0.005000 -0.005000
vn -0.0000 -0.0000 -1.0000
vn -1.0000 -0.0000 -0.0000
vn -0.0000 -0.0000 1.0000
vn 1.0000 -0.0000 -0.0000
vn -0.0000 1.0000 -0.0000
vn -0.0000 -1.0000 -0.0000
vt 0.375000 0.000000
vt 0.625000 0.000000
vt 0.625000 0.250000
vt 0.375000 0.250000
vt 0.625000 0.500000
vt 0.375000 0.500000
vt 0.625000 0.750000
vt 0.375000 0.750000
vt 0.625000 1.000000
vt 0.375000 1.000000
vt 0.125000 0.500000
vt 0.125000 0.750000
vt 0.875000 0.500000
vt 0.875000 0.750000
s 0
usemtl Material.001
f 33/49/19 34/50/19 36/51/19 35/52/19
f 35/52/20 36/51/20 40/53/20 39/54/20
f 39/54/21 40/53/21 38/55/21 37/56/21
f 37/56/22 38/55/22 34/57/22 33/58/22
f 35/59/23 39/54/23 37/56/23 33/60/23
f 40/53/24 36/61/24 34/62/24 38/55/24
o Cube.002
v 0.005000 0.005000 0.005000
v 0.005000 -0.005000 0.005000
v -0.005000 0.005000 0.005000
v -0.005000 -0.005000 0.005000
v 0.005000 0.005000 0.125000
v 0.005000 -0.005000 0.125000
v -0.005000 0.005000 0.125000
v -0.005000 -0.005000 0.125000
vn -0.0000 -0.0000 -1.0000
vn -1.0000 -0.0000 -0.0000
vn -0.0000 -0.0000 1.0000
vn 1.0000 -0.0000 -0.0000
vn -0.0000 1.0000 -0.0000
vn -0.0000 -1.0000 -0.0000
vt 0.375000 0.000000
vt 0.625000 0.000000
vt 0.625000 0.250000
vt 0.375000 0.250000
vt 0.625000 0.500000
vt 0.375000 0.500000
vt 0.625000 0.750000
vt 0.375000 0.750000
vt 0.625000 1.000000
vt 0.375000 1.000000
vt 0.125000 0.500000
vt 0.125000 0.750000
vt 0.875000 0.500000
vt 0.875000 0.750000
s 0
usemtl Material.001
f 41/63/25 42/64/25 44/65/25 43/66/25
f 43/66/26 44/65/26 48/67/26 47/68/26
f 47/68/27 48/67/27 46/69/27 45/70/27
f 45/70/28 46/69/28 42/71/28 41/72/28
f 43/73/29 47/68/29 45/70/29 41/74/29
f 48/67/30 44/75/30 42/76/30 46/69/30
o Cube.003
v -0.125000 0.005000 -0.005000
v -0.125000 -0.005000 -0.005000
v -0.125000 0.005000 0.005000
v -0.125000 -0.005000 0.005000
v -0.005000 0.005000 -0.005000
v -0.005000 -0.005000 -0.005000
v -0.005000 0.005000 0.005000
v -0.005000 -0.005000 0.005000
vn -1.0000 -0.0000 -0.0000
vn -0.0000 -0.0000 1.0000
vn 1.0000 -0.0000 -0.0000
vn -0.0000 -0.0000 -1.0000
vn -0.0000 1.0000 -0.0000
vn -0.0000 -1.0000 -0.0000
vt 0.375000 0.000000
vt 0.625000 0.000000
vt 0.625000 0.250000
vt 0.375000 0.250000
vt 0.625000 0.500000
vt 0.375000 0.500000
vt 0.625000 0.750000
vt 0.375000 0.750000
vt 0.625000 1.000000
vt 0.375000 1.000000
vt 0.125000 0.500000
vt 0.125000 0.750000
vt 0.875000 0.500000
vt 0.875000 0.750000
s 0
usemtl Material.001
f 49/77/31 50/78/31 52/79/31 51/80/31
f 51/80/32 52/79/32 56/81/32 55/82/32
f 55/82/33 56/81/33 54/83/33 53/84/33
f 53/84/34 54/83/34 50/85/34 49/86/34
f 51/87/35 55/82/35 53/84/35 49/88/35
f 56/81/36 52/89/36 50/90/36 54/83/36
o Cube.004
v 0.005000 0.005000 -0.005000
v 0.005000 -0.005000 -0.005000
v 0.005000 0.005000 0.005000
v 0.005000 -0.005000 0.005000
v 0.125000 0.005000 -0.005000
v 0.125000 -0.005000 -0.005000
v 0.125000 0.005000 0.005000
v 0.125000 -0.005000 0.005000
vn -1.0000 -0.0000 -0.0000
vn -0.0000 -0.0000 1.0000
vn 1.0000 -0.0000 -0.0000
vn -0.0000 -0.0000 -1.0000
vn -0.0000 1.0000 -0.0000
vn -0.0000 -1.0000 -0.0000
vt 0.375000 0.000000
vt 0.625000 0.000000
vt 0.625000 0.250000
vt 0.375000 0.250000
vt 0.625000 0.500000
vt 0.375000 0.500000
vt 0.625000 0.750000
vt 0.375000 0.750000
vt 0.625000 1.000000
vt 0.375000 1.000000
vt 0.125000 0.500000
vt 0.125000 0.750000
vt 0.875000 0.500000
vt 0.875000 0.750000
s 0
usemtl Material.001
f 57/91/37 58/92/37 60/93/37 59/94/37
f 59/94/38 60/93/38 64/95/38 63/96/38
f 63/96/39 64/95/39 62/97/39 61/98/39
f 61/98/40 62/97/40 58/99/40 57/100/40
f 59/101/41 63/96/41 61/98/41 57/102/41
f 64/95/42 60/103/42 58/104/42 62/97/42
